<svg xmlns="http://www.w3.org/2000/svg" width="1740" height="1258" viewBox="0 0 1740 1258" font-family="'Segoe UI',Roboto,Arial,sans-serif">
<defs><marker id="arr" viewBox="0 0 10 10" refX="9" refY="5" markerWidth="7" markerHeight="7" orient="auto-start-reverse"><path d="M0,0L10,5L0,10z" fill="#475569"/></marker><marker id="arrD" viewBox="0 0 10 10" refX="9" refY="5" markerWidth="7" markerHeight="7" orient="auto-start-reverse"><path d="M0,0L10,5L0,10z" fill="#94a3b8"/></marker></defs>
<rect width="1740" height="1258" fill="#ffffff"/>
<text x="870" y="26" font-size="21" font-weight="700" fill="#0f172a" text-anchor="middle">Схема баз данных SmartPlan — УП «МИНГАЗ» (сборка 22.09-139)</text>
<text x="870" y="44" font-size="12" fill="#64748b" text-anchor="middle">Каждый блок — отдельная база: запись localStorage в браузере, секция JSONB на сервере Render, синхронизация по id. Все линии связей — с изгибами 90°.</text>
<rect x="44" y="34" width="372" height="860" rx="14" fill="#dcfce7" stroke="#86efac" stroke-width="1.6"/>
<text x="58" y="51" font-size="12" font-weight="800" fill="#16a34a" letter-spacing="1.2">СПРАВОЧНИКИ</text>
<rect x="464" y="94" width="332" height="348" rx="14" fill="#ffedd5" stroke="#fdba74" stroke-width="1.6"/>
<text x="478" y="111" font-size="12" font-weight="800" fill="#ea580c" letter-spacing="1.2">ОБЪЕКТЫ ГАЗОРАСПРЕДЕЛЕНИЯ</text>
<rect x="484" y="534" width="722" height="348" rx="14" fill="#ede9fe" stroke="#c4b5fd" stroke-width="1.6"/>
<text x="498" y="551" font-size="12" font-weight="800" fill="#7c3aed" letter-spacing="1.2">ПЛАНИРОВАНИЕ РАБОТ</text>
<rect x="1334" y="94" width="332" height="496" rx="14" fill="#dbeafe" stroke="#93c5fd" stroke-width="1.6"/>
<text x="1348" y="111" font-size="12" font-weight="800" fill="#2563eb" letter-spacing="1.2">ПЕРСОНАЛ</text>
<rect x="54" y="959" width="802" height="172" rx="14" fill="#f1f5f9" stroke="#cbd5e1" stroke-width="1.6"/>
<text x="68" y="976" font-size="12" font-weight="800" fill="#64748b" letter-spacing="1.2">СЛУЖЕБНЫЕ (автономные, без связей)</text>
<g>
<rect x="60" y="60" width="320" height="84" rx="9" fill="#ffffff" stroke="#16a34a" stroke-width="1.8" filter="drop-shadow(0 1px 2px rgba(15,23,42,.12))"/>
<rect x="60" y="60" width="320" height="30" rx="9" fill="#16a34a"/>
<rect x="60" y="81" width="320" height="9" fill="#16a34a"/>
<text x="70" y="75" font-size="13" font-weight="700" fill="#ffffff">🗄 areas</text>
<text x="70" y="87" font-size="9.5" fill="rgba(255,255,255,.88)">Участки (справочник) · smartplan_areas_db</text>
<rect x="62" y="90" width="4" height="22" fill="#f59e0b"/>
<text x="72" y="105" font-size="11" font-weight="700" fill="#0f172a">id</text>
<text x="116" y="105" font-size="10" fill="#64748b">PK · текст</text>
<text x="340" y="105" font-size="10" font-weight="800" fill="#b45309">🔑 PK</text>
<rect x="62" y="112" width="316" height="22" fill="#f8fafc"/>
<text x="72" y="127" font-size="11" font-weight="600" fill="#0f172a">name</text>
<text x="130" y="127" font-size="10" fill="#64748b">уникальное наименование участка</text>
</g>
<g>
<rect x="60" y="180" width="320" height="106" rx="9" fill="#ffffff" stroke="#16a34a" stroke-width="1.8" filter="drop-shadow(0 1px 2px rgba(15,23,42,.12))"/>
<rect x="60" y="180" width="320" height="30" rx="9" fill="#16a34a"/>
<rect x="60" y="201" width="320" height="9" fill="#16a34a"/>
<text x="70" y="195" font-size="13" font-weight="700" fill="#ffffff">🗄 professions</text>
<text x="70" y="207" font-size="9.5" fill="rgba(255,255,255,.88)">Профессии (справочник) · smartplan_professions_db</text>
<rect x="62" y="210" width="4" height="22" fill="#f59e0b"/>
<text x="72" y="225" font-size="11" font-weight="700" fill="#0f172a">id</text>
<text x="116" y="225" font-size="10" fill="#64748b">PK · текст</text>
<text x="340" y="225" font-size="10" font-weight="800" fill="#b45309">🔑 PK</text>
<rect x="62" y="232" width="316" height="22" fill="#f8fafc"/>
<text x="72" y="247" font-size="11" font-weight="600" fill="#0f172a">name</text>
<text x="130" y="247" font-size="10" fill="#64748b">наименование (уник.)</text>
<text x="72" y="269" font-size="11" font-weight="600" fill="#0f172a">kind</text>
<text x="130" y="269" font-size="10" fill="#64748b">«prof_name» — строки-списки</text>
</g>
<g>
<rect x="60" y="320" width="320" height="84" rx="9" fill="#ffffff" stroke="#16a34a" stroke-width="1.8" filter="drop-shadow(0 1px 2px rgba(15,23,42,.12))"/>
<rect x="60" y="320" width="320" height="30" rx="9" fill="#16a34a"/>
<rect x="60" y="341" width="320" height="9" fill="#16a34a"/>
<text x="70" y="335" font-size="13" font-weight="700" fill="#ffffff">🗄 telemetry</text>
<text x="70" y="347" font-size="9.5" fill="rgba(255,255,255,.88)">Виды телеметрии · smartplan_telemetry</text>
<rect x="62" y="350" width="4" height="22" fill="#f59e0b"/>
<text x="72" y="365" font-size="11" font-weight="700" fill="#0f172a">id</text>
<text x="116" y="365" font-size="10" fill="#64748b">PK · tt_*</text>
<text x="340" y="365" font-size="10" font-weight="800" fill="#b45309">🔑 PK</text>
<rect x="62" y="372" width="316" height="22" fill="#f8fafc"/>
<text x="72" y="387" font-size="11" font-weight="600" fill="#0f172a">name</text>
<text x="130" y="387" font-size="10" fill="#64748b">«ПТК "Индел"», Wago, «ПТК "Сириус"» …</text>
</g>
<g>
<rect x="60" y="440" width="340" height="436" rx="9" fill="#ffffff" stroke="#16a34a" stroke-width="1.8" filter="drop-shadow(0 1px 2px rgba(15,23,42,.12))"/>
<rect x="60" y="440" width="340" height="30" rx="9" fill="#16a34a"/>
<rect x="60" y="461" width="340" height="9" fill="#16a34a"/>
<text x="70" y="455" font-size="13" font-weight="700" fill="#ffffff">🗄 work_catalog</text>
<text x="70" y="467" font-size="9.5" fill="rgba(255,255,255,.88)">Виды работ (каталог) · smartplan_work_catalog</text>
<rect x="62" y="470" width="4" height="22" fill="#f59e0b"/>
<text x="72" y="485" font-size="11" font-weight="700" fill="#0f172a">id</text>
<text x="116" y="485" font-size="10" fill="#64748b">PK · текст</text>
<text x="360" y="485" font-size="10" font-weight="800" fill="#b45309">🔑 PK</text>
<rect x="62" y="492" width="336" height="22" fill="#f8fafc"/>
<rect x="62" y="492" width="4" height="22" fill="#0ea5e9"/>
<text x="72" y="507" font-size="11" font-weight="700" fill="#0f172a">area</text>
<text x="130" y="507" font-size="10" fill="#64748b">FK → areas.name</text>
<text x="360" y="507" font-size="10" font-weight="800" fill="#0369a1">🔗 FK</text>
<text x="72" y="529" font-size="11" font-weight="600" fill="#0f172a">group</text>
<text x="137" y="529" font-size="10" fill="#64748b">«Группа / Подгруппа» (путь « / »)</text>
<rect x="62" y="536" width="336" height="22" fill="#f8fafc"/>
<text x="72" y="551" font-size="11" font-weight="600" fill="#0f172a">group_flags</text>
<text x="179" y="551" font-size="10" fill="#64748b">свойства группы: «Телеметрия», «ГРП», метки</text>
<text x="72" y="573" font-size="11" font-weight="600" fill="#0f172a">name</text>
<text x="130" y="573" font-size="10" fill="#64748b">наименование работы</text>
<rect x="62" y="580" width="336" height="22" fill="#f8fafc"/>
<text x="72" y="595" font-size="11" font-weight="600" fill="#0f172a">norm / unit</text>
<text x="179" y="595" font-size="10" fill="#64748b">норма времени, ед. изм.</text>
<text x="72" y="617" font-size="11" font-weight="600" fill="#0f172a">season / min_temp</text>
<text x="221" y="617" font-size="10" fill="#64748b">сезон, ограничение по t°</text>
<rect x="62" y="624" width="336" height="22" fill="#f8fafc"/>
<text x="72" y="639" font-size="11" font-weight="600" fill="#0f172a">object_categories[]</text>
<text x="235" y="639" font-size="10" fill="#64748b">ГРП/ШРП/ПГРП… (для автоподбора)</text>
<text x="72" y="661" font-size="11" font-weight="600" fill="#0f172a">lines_count</text>
<text x="179" y="661" font-size="10" fill="#64748b">линий редуцирования</text>
<rect x="62" y="668" width="336" height="22" fill="#f8fafc"/>
<text x="72" y="683" font-size="11" font-weight="600" fill="#0f172a">periodicity_*</text>
<text x="193" y="683" font-size="10" fill="#64748b">value / unit / dev / basis (правила серий)</text>
<rect x="62" y="690" width="4" height="22" fill="#0ea5e9"/>
<text x="72" y="705" font-size="11" font-weight="700" fill="#0f172a">periodicity_depends_on[]</text>
<text x="248.8" y="705" font-size="10" fill="#64748b">FK → work_catalog.id (самоссылка)</text>
<text x="360" y="705" font-size="10" font-weight="800" fill="#0369a1">🔗 FK</text>
<rect x="62" y="712" width="336" height="22" fill="#f8fafc"/>
<rect x="62" y="712" width="4" height="22" fill="#0ea5e9"/>
<text x="72" y="727" font-size="11" font-weight="700" fill="#0f172a">joint_with[]</text>
<text x="186" y="727" font-size="10" fill="#64748b">FK → work_catalog.id (самоссылка)</text>
<text x="360" y="727" font-size="10" font-weight="800" fill="#0369a1">🔗 FK</text>
<text x="72" y="749" font-size="11" font-weight="600" fill="#0f172a">telemetry_req</text>
<text x="193" y="749" font-size="10" fill="#64748b">с ТМ / без ТМ (для автоподбора)</text>
<rect x="62" y="756" width="336" height="22" fill="#f8fafc"/>
<rect x="62" y="756" width="4" height="22" fill="#0ea5e9"/>
<text x="72" y="771" font-size="11" font-weight="700" fill="#0f172a">telemetry_type</text>
<text x="200" y="771" font-size="10" fill="#64748b">FK → telemetry.name</text>
<text x="360" y="771" font-size="10" font-weight="800" fill="#0369a1">🔗 FK</text>
<text x="72" y="793" font-size="11" font-weight="600" fill="#0f172a">diag_equipment / heating_req</text>
<text x="248.8" y="793" font-size="10" fill="#64748b">диагностика / ТО отопления</text>
<rect x="62" y="800" width="336" height="22" fill="#f8fafc"/>
<rect x="62" y="800" width="4" height="22" fill="#0ea5e9"/>
<text x="72" y="815" font-size="11" font-weight="700" fill="#0f172a">crew[]: prof / grade / count</text>
<text x="248.8" y="815" font-size="10" fill="#64748b">FK → professions.name</text>
<text x="360" y="815" font-size="10" font-weight="800" fill="#0369a1">🔗 FK</text>
<text x="72" y="837" font-size="11" font-weight="600" fill="#0f172a">needs_permit / equipment …</text>
<text x="248.8" y="837" font-size="10" fill="#64748b">ордер, снег, техника, исключения</text>
<rect x="62" y="844" width="336" height="22" fill="#f8fafc"/>
<text x="72" y="859" font-size="11" font-weight="600" fill="#0f172a">rate …</text>
<text x="144" y="859" font-size="10" fill="#64748b">дефолты и нормы из библиотеки (112 норм ГРП)</text>
</g>
<g>
<rect x="480" y="120" width="300" height="304" rx="9" fill="#ffffff" stroke="#ea580c" stroke-width="1.8" filter="drop-shadow(0 1px 2px rgba(15,23,42,.12))"/>
<rect x="480" y="120" width="300" height="30" rx="9" fill="#ea580c"/>
<rect x="480" y="141" width="300" height="9" fill="#ea580c"/>
<text x="490" y="135" font-size="13" font-weight="700" fill="#ffffff">🗄 objects</text>
<text x="490" y="147" font-size="9.5" fill="rgba(255,255,255,.88)">Объекты (ГРП/ШРП/ГРС/ПГРП) · smartplan_objects_db</text>
<rect x="482" y="150" width="4" height="22" fill="#f59e0b"/>
<text x="492" y="165" font-size="11" font-weight="700" fill="#0f172a">id</text>
<text x="536" y="165" font-size="10" fill="#64748b">PK · текст</text>
<text x="740" y="165" font-size="10" font-weight="800" fill="#b45309">🔑 PK</text>
<rect x="482" y="172" width="296" height="22" fill="#f8fafc"/>
<text x="492" y="187" font-size="11" font-weight="600" fill="#0f172a">type</text>
<text x="550" y="187" font-size="10" fill="#64748b">ГРП / ШРП / ПГРП / Трасса…</text>
<text x="492" y="209" font-size="11" font-weight="600" fill="#0f172a">num / addr</text>
<text x="592" y="209" font-size="10" fill="#64748b">номер, адрес</text>
<rect x="482" y="216" width="296" height="22" fill="#f8fafc"/>
<text x="492" y="231" font-size="11" font-weight="600" fill="#0f172a">lat / lng</text>
<text x="585" y="231" font-size="10" fill="#64748b">координаты (карта)</text>
<rect x="482" y="238" width="4" height="22" fill="#0ea5e9"/>
<text x="492" y="253" font-size="11" font-weight="700" fill="#0f172a">respId</text>
<text x="564" y="253" font-size="10" fill="#64748b">FK → users.id (ответственный)</text>
<text x="740" y="253" font-size="10" font-weight="800" fill="#0369a1">🔗 FK</text>
<rect x="482" y="260" width="296" height="22" fill="#f8fafc"/>
<rect x="482" y="260" width="4" height="22" fill="#0ea5e9"/>
<text x="492" y="275" font-size="11" font-weight="700" fill="#0f172a">respHistory[].uid</text>
<text x="641" y="275" font-size="10" fill="#64748b">FK → users.id (история)</text>
<text x="740" y="275" font-size="10" font-weight="800" fill="#0369a1">🔗 FK</text>
<rect x="482" y="282" width="4" height="22" fill="#0ea5e9"/>
<text x="492" y="297" font-size="11" font-weight="700" fill="#0f172a">attrs.telemetry</text>
<text x="627" y="297" font-size="10" fill="#64748b">FK → telemetry.name</text>
<text x="740" y="297" font-size="10" font-weight="800" fill="#0369a1">🔗 FK</text>
<rect x="482" y="304" width="296" height="22" fill="#f8fafc"/>
<text x="492" y="319" font-size="11" font-weight="600" fill="#0f172a">attrs.serviceKind</text>
<text x="641" y="319" font-size="10" fill="#64748b">вид обслуживания (Region-gas)</text>
<text x="492" y="341" font-size="11" font-weight="600" fill="#0f172a">attrs.reduceLines / heating</text>
<text x="648" y="341" font-size="10" fill="#64748b">линии редуцирования / отопление</text>
<rect x="482" y="348" width="296" height="22" fill="#f8fafc"/>
<text x="492" y="363" font-size="11" font-weight="600" fill="#0f172a">attrs.commissionDate</text>
<text x="648" y="363" font-size="10" fill="#64748b">дата ввода — ЯКОРЬ серий из даты ввода</text>
<rect x="482" y="370" width="4" height="22" fill="#0ea5e9"/>
<text x="492" y="385" font-size="11" font-weight="700" fill="#0f172a">plan_works[].wid</text>
<text x="634" y="385" font-size="10" fill="#64748b">FK → work_catalog.id (общий набор работ)</text>
<text x="740" y="385" font-size="10" font-weight="800" fill="#0369a1">🔗 FK</text>
<rect x="482" y="392" width="296" height="22" fill="#f8fafc"/>
<text x="492" y="407" font-size="11" font-weight="600" fill="#0f172a">plan_works[].period/dev/first</text>
<text x="648" y="407" font-size="10" fill="#64748b">настройки серий объекта (22.09-138)</text>
</g>
<g>
<rect x="500" y="560" width="310" height="238" rx="9" fill="#ffffff" stroke="#7c3aed" stroke-width="1.8" filter="drop-shadow(0 1px 2px rgba(15,23,42,.12))"/>
<rect x="500" y="560" width="310" height="30" rx="9" fill="#7c3aed"/>
<rect x="500" y="581" width="310" height="9" fill="#7c3aed"/>
<text x="510" y="575" font-size="13" font-weight="700" fill="#ffffff">🗄 graphs</text>
<text x="510" y="587" font-size="9.5" fill="rgba(255,255,255,.88)">Графики работ (годовые) · smartplan_graphs</text>
<rect x="502" y="590" width="4" height="22" fill="#f59e0b"/>
<text x="512" y="605" font-size="11" font-weight="700" fill="#0f172a">id</text>
<text x="556" y="605" font-size="10" fill="#64748b">PK · текст</text>
<text x="770" y="605" font-size="10" font-weight="800" fill="#b45309">🔑 PK</text>
<rect x="502" y="612" width="306" height="22" fill="#f8fafc"/>
<text x="512" y="627" font-size="11" font-weight="600" fill="#0f172a">name / year</text>
<text x="619" y="627" font-size="10" fill="#64748b">наименование, год</text>
<rect x="502" y="634" width="4" height="22" fill="#0ea5e9"/>
<text x="512" y="649" font-size="11" font-weight="700" fill="#0f172a">area</text>
<text x="570" y="649" font-size="10" fill="#64748b">FK → areas.name</text>
<text x="770" y="649" font-size="10" font-weight="800" fill="#0369a1">🔗 FK</text>
<rect x="502" y="656" width="306" height="22" fill="#f8fafc"/>
<rect x="502" y="656" width="4" height="22" fill="#0ea5e9"/>
<text x="512" y="671" font-size="11" font-weight="700" fill="#0f172a">respId</text>
<text x="584" y="671" font-size="10" fill="#64748b">FK → users.id (мастер графика)</text>
<text x="770" y="671" font-size="10" font-weight="800" fill="#0369a1">🔗 FK</text>
<rect x="502" y="678" width="4" height="22" fill="#0ea5e9"/>
<text x="512" y="693" font-size="11" font-weight="700" fill="#0f172a">objs[].oid</text>
<text x="612" y="693" font-size="10" fill="#64748b">FK → objects.id</text>
<text x="770" y="693" font-size="10" font-weight="800" fill="#0369a1">🔗 FK</text>
<rect x="502" y="700" width="306" height="22" fill="#f8fafc"/>
<rect x="502" y="700" width="4" height="22" fill="#0ea5e9"/>
<text x="512" y="715" font-size="11" font-weight="700" fill="#0f172a">objs[].works[].sid / wid</text>
<text x="673.2" y="715" font-size="10" fill="#64748b">sid — серия · wid — FK → work_catalog.id</text>
<text x="770" y="715" font-size="10" font-weight="800" fill="#0369a1">🔗 FK</text>
<text x="512" y="737" font-size="11" font-weight="600" fill="#0f172a">objs[].works[].period/dev/first</text>
<text x="673.2" y="737" font-size="10" fill="#64748b">шаг серии = периодичность − отклонение</text>
<rect x="502" y="744" width="306" height="22" fill="#f8fafc"/>
<text x="512" y="759" font-size="11" font-weight="600" fill="#0f172a">objs[].works[].occs[].date</text>
<text x="673.2" y="759" font-size="10" fill="#64748b">рассчитанные даты (треугольники)</text>
<rect x="502" y="766" width="4" height="22" fill="#0ea5e9"/>
<text x="512" y="781" font-size="11" font-weight="700" fill="#0f172a">objs[].works[].occs[].tid</text>
<text x="673.2" y="781" font-size="10" fill="#64748b">FK → tasks.id</text>
<text x="770" y="781" font-size="10" font-weight="800" fill="#0369a1">🔗 FK</text>
</g>
<g>
<rect x="880" y="560" width="310" height="304" rx="9" fill="#ffffff" stroke="#7c3aed" stroke-width="1.8" filter="drop-shadow(0 1px 2px rgba(15,23,42,.12))"/>
<rect x="880" y="560" width="310" height="30" rx="9" fill="#7c3aed"/>
<rect x="880" y="581" width="310" height="9" fill="#7c3aed"/>
<text x="890" y="575" font-size="13" font-weight="700" fill="#ffffff">🗄 tasks</text>
<text x="890" y="587" font-size="9.5" fill="rgba(255,255,255,.88)">Задачи (планирование/календарь) · smartplan_tasks_db</text>
<rect x="882" y="590" width="4" height="22" fill="#f59e0b"/>
<text x="892" y="605" font-size="11" font-weight="700" fill="#0f172a">id</text>
<text x="936" y="605" font-size="10" fill="#64748b">PK · текст</text>
<text x="1150" y="605" font-size="10" font-weight="800" fill="#b45309">🔑 PK</text>
<rect x="882" y="612" width="306" height="22" fill="#f8fafc"/>
<rect x="882" y="612" width="4" height="22" fill="#0ea5e9"/>
<text x="892" y="627" font-size="11" font-weight="700" fill="#0f172a">m</text>
<text x="929" y="627" font-size="10" fill="#64748b">FK → users.id (мастер)</text>
<text x="1150" y="627" font-size="10" font-weight="800" fill="#0369a1">🔗 FK</text>
<rect x="882" y="634" width="4" height="22" fill="#0ea5e9"/>
<text x="892" y="649" font-size="11" font-weight="700" fill="#0f172a">slesari[]</text>
<text x="985" y="649" font-size="10" fill="#64748b">FK → users.id (бригада)</text>
<text x="1150" y="649" font-size="10" font-weight="800" fill="#0369a1">🔗 FK</text>
<rect x="882" y="656" width="306" height="22" fill="#f8fafc"/>
<rect x="882" y="656" width="4" height="22" fill="#0ea5e9"/>
<text x="892" y="671" font-size="11" font-weight="700" fill="#0f172a">o</text>
<text x="929" y="671" font-size="10" fill="#64748b">FK → objects.id</text>
<text x="1150" y="671" font-size="10" font-weight="800" fill="#0369a1">🔗 FK</text>
<rect x="882" y="678" width="4" height="22" fill="#0ea5e9"/>
<text x="892" y="693" font-size="11" font-weight="700" fill="#0f172a">w</text>
<text x="929" y="693" font-size="10" fill="#64748b">FK → work_catalog.id</text>
<text x="1150" y="693" font-size="10" font-weight="800" fill="#0369a1">🔗 FK</text>
<rect x="882" y="700" width="306" height="22" fill="#f8fafc"/>
<rect x="882" y="700" width="4" height="22" fill="#0ea5e9"/>
<text x="892" y="715" font-size="11" font-weight="700" fill="#0f172a">garea</text>
<text x="957" y="715" font-size="10" fill="#64748b">FK → areas.name (участок работ)</text>
<text x="1150" y="715" font-size="10" font-weight="800" fill="#0369a1">🔗 FK</text>
<rect x="882" y="722" width="4" height="22" fill="#0ea5e9"/>
<text x="892" y="737" font-size="11" font-weight="700" fill="#0f172a">graphId</text>
<text x="971" y="737" font-size="10" fill="#64748b">FK → graphs.id</text>
<text x="1150" y="737" font-size="10" font-weight="800" fill="#0369a1">🔗 FK</text>
<rect x="882" y="744" width="306" height="22" fill="#f8fafc"/>
<text x="892" y="759" font-size="11" font-weight="600" fill="#0f172a">graphRi / graphSid</text>
<text x="1048" y="759" font-size="10" fill="#64748b">индекс объекта / sid серии в graphs</text>
<text x="892" y="781" font-size="11" font-weight="600" fill="#0f172a">d / dl</text>
<text x="964" y="781" font-size="10" fill="#64748b">дата / дедлайн (отклонение серии)</text>
<rect x="882" y="788" width="306" height="22" fill="#f8fafc"/>
<text x="892" y="803" font-size="11" font-weight="600" fill="#0f172a">s / status</text>
<text x="992" y="803" font-size="10" fill="#64748b">plan → в работе → done</text>
<text x="892" y="825" font-size="11" font-weight="600" fill="#0f172a">volume, norm_result…</text>
<text x="1053.2" y="825" font-size="10" fill="#64748b">объём, результат, расчёт подряда</text>
<rect x="882" y="832" width="306" height="22" fill="#f8fafc"/>
<text x="892" y="847" font-size="11" font-weight="600" fill="#0f172a">…служебные поля</text>
<text x="1027" y="847" font-size="10" fill="#64748b">переносы тянут всю серию в graphs</text>
</g>
<g>
<rect x="1350" y="120" width="300" height="150" rx="9" fill="#ffffff" stroke="#2563eb" stroke-width="1.8" filter="drop-shadow(0 1px 2px rgba(15,23,42,.12))"/>
<rect x="1350" y="120" width="300" height="30" rx="9" fill="#2563eb"/>
<rect x="1350" y="141" width="300" height="9" fill="#2563eb"/>
<text x="1360" y="135" font-size="13" font-weight="700" fill="#ffffff">🗄 users</text>
<text x="1360" y="147" font-size="9.5" fill="rgba(255,255,255,.88)">Пользователи (учётные записи) · smartplan_users_db</text>
<rect x="1352" y="150" width="4" height="22" fill="#f59e0b"/>
<text x="1362" y="165" font-size="11" font-weight="700" fill="#0f172a">id</text>
<text x="1406" y="165" font-size="10" fill="#64748b">PK · текст</text>
<text x="1610" y="165" font-size="10" font-weight="800" fill="#b45309">🔑 PK</text>
<rect x="1352" y="172" width="296" height="22" fill="#f8fafc"/>
<text x="1362" y="187" font-size="11" font-weight="600" fill="#0f172a">login</text>
<text x="1427" y="187" font-size="10" fill="#64748b">логин (уник.)</text>
<text x="1362" y="209" font-size="11" font-weight="600" fill="#0f172a">full_name</text>
<text x="1455" y="209" font-size="10" fill="#64748b">ФИО</text>
<rect x="1352" y="216" width="296" height="22" fill="#f8fafc"/>
<text x="1362" y="231" font-size="11" font-weight="600" fill="#0f172a">role</text>
<text x="1420" y="231" font-size="10" fill="#64748b">admin / master / slesar</text>
<rect x="1352" y="238" width="4" height="22" fill="#0ea5e9"/>
<text x="1362" y="253" font-size="11" font-weight="700" fill="#0f172a">area</text>
<text x="1420" y="253" font-size="10" fill="#64748b">FK → areas.name (свой участок)</text>
<text x="1610" y="253" font-size="10" font-weight="800" fill="#0369a1">🔗 FK</text>
</g>
<g>
<rect x="1350" y="400" width="300" height="172" rx="9" fill="#ffffff" stroke="#2563eb" stroke-width="1.8" filter="drop-shadow(0 1px 2px rgba(15,23,42,.12))"/>
<rect x="1350" y="400" width="300" height="30" rx="9" fill="#2563eb"/>
<rect x="1350" y="421" width="300" height="9" fill="#2563eb"/>
<text x="1360" y="415" font-size="13" font-weight="700" fill="#ffffff">🗄 workers</text>
<text x="1360" y="427" font-size="9.5" fill="rgba(255,255,255,.88)">Работники (графики смен) · smartplan_workers_db</text>
<rect x="1352" y="430" width="4" height="22" fill="#f59e0b"/>
<text x="1362" y="445" font-size="11" font-weight="700" fill="#0f172a">uid (= id пользователя)</text>
<text x="1518" y="445" font-size="10" fill="#64748b">PK+FK → users.id</text>
<text x="1610" y="445" font-size="10" font-weight="800" fill="#b45309">🔑 PK</text>
<rect x="1352" y="452" width="296" height="22" fill="#f8fafc"/>
<text x="1362" y="467" font-size="11" font-weight="600" fill="#0f172a">sched</text>
<text x="1427" y="467" font-size="10" fill="#64748b">график смен 8ч 5/2, 12ч 2/2</text>
<text x="1362" y="489" font-size="11" font-weight="600" fill="#0f172a">hours</text>
<text x="1427" y="489" font-size="10" fill="#64748b">часов в смене</text>
<rect x="1352" y="496" width="296" height="22" fill="#f8fafc"/>
<rect x="1352" y="496" width="4" height="22" fill="#0ea5e9"/>
<text x="1362" y="511" font-size="11" font-weight="700" fill="#0f172a">brigade</text>
<text x="1441" y="511" font-size="10" fill="#64748b">FK → users.id (мастер бригады)</text>
<text x="1610" y="511" font-size="10" font-weight="800" fill="#0369a1">🔗 FK</text>
<text x="1362" y="533" font-size="11" font-weight="600" fill="#0f172a">abs{}</text>
<text x="1427" y="533" font-size="10" fill="#64748b">отсутствия по датам (отпуск…)</text>
<rect x="1352" y="540" width="296" height="22" fill="#f8fafc"/>
<text x="1362" y="555" font-size="11" font-weight="600" fill="#0f172a">leaves[]</text>
<text x="1448" y="555" font-size="10" fill="#64748b">доп. периоды отсутствий</text>
</g>
<g>
<rect x="70" y="985" width="230" height="106" rx="9" fill="#ffffff" stroke="#64748b" stroke-width="1.8" filter="drop-shadow(0 1px 2px rgba(15,23,42,.12))"/>
<rect x="70" y="985" width="230" height="30" rx="9" fill="#64748b"/>
<rect x="70" y="1006" width="230" height="9" fill="#64748b"/>
<text x="80" y="1000" font-size="13" font-weight="700" fill="#ffffff">🗄 holidays</text>
<text x="80" y="1012" font-size="9.5" fill="rgba(255,255,255,.88)">Праздники · smartplan_holidays</text>
<rect x="72" y="1015" width="4" height="22" fill="#f59e0b"/>
<text x="82" y="1030" font-size="11" font-weight="700" fill="#0f172a">id («h_MM-DD»)</text>
<text x="201.60000000000002" y="1030" font-size="10" fill="#64748b">PK</text>
<text x="260" y="1030" font-size="10" font-weight="800" fill="#b45309">🔑 PK</text>
<rect x="72" y="1037" width="226" height="22" fill="#f8fafc"/>
<text x="82" y="1052" font-size="11" font-weight="600" fill="#0f172a">date</text>
<text x="140" y="1052" font-size="10" fill="#64748b">ММ-ДД (без года)</text>
<text x="82" y="1074" font-size="11" font-weight="600" fill="#0f172a">name</text>
<text x="140" y="1074" font-size="10" fill="#64748b">наименование</text>
</g>
<g>
<rect x="340" y="985" width="230" height="128" rx="9" fill="#ffffff" stroke="#64748b" stroke-width="1.8" filter="drop-shadow(0 1px 2px rgba(15,23,42,.12))"/>
<rect x="340" y="985" width="230" height="30" rx="9" fill="#64748b"/>
<rect x="340" y="1006" width="230" height="9" fill="#64748b"/>
<text x="350" y="1000" font-size="13" font-weight="700" fill="#ffffff">🗄 logs</text>
<text x="350" y="1012" font-size="9.5" fill="rgba(255,255,255,.88)">Журнал действий (буфер) · smartplan_local_logs</text>
<text x="352" y="1030" font-size="11" font-weight="600" fill="#0f172a">ts</text>
<text x="396" y="1030" font-size="10" fill="#64748b">метка времени</text>
<rect x="342" y="1037" width="226" height="22" fill="#f8fafc"/>
<text x="352" y="1052" font-size="11" font-weight="600" fill="#0f172a">user / action / details</text>
<text x="471.6" y="1052" font-size="10" fill="#64748b">кто / что / детали</text>
<text x="352" y="1074" font-size="11" font-weight="600" fill="#0f172a">—</text>
<text x="389" y="1074" font-size="10" fill="#64748b">локальный буфер (основное — на сервере)</text>
<rect x="342" y="1081" width="226" height="22" fill="#f8fafc"/>
<text x="352" y="1096" font-size="11" font-weight="600" fill="#0f172a">—</text>
<text x="389" y="1096" font-size="10" fill="#64748b">последние ~200 событий</text>
</g>
<g>
<rect x="610" y="985" width="230" height="128" rx="9" fill="#ffffff" stroke="#64748b" stroke-width="1.8" filter="drop-shadow(0 1px 2px rgba(15,23,42,.12))"/>
<rect x="610" y="985" width="230" height="30" rx="9" fill="#64748b"/>
<rect x="610" y="1006" width="230" height="9" fill="#64748b"/>
<text x="620" y="1000" font-size="13" font-weight="700" fill="#ffffff">🗄 errlogs</text>
<text x="620" y="1012" font-size="9.5" fill="rgba(255,255,255,.88)">Логи ошибок · smartplan_errors</text>
<text x="622" y="1030" font-size="11" font-weight="600" fill="#0f172a">ts</text>
<text x="666" y="1030" font-size="10" fill="#64748b">метка времени</text>
<rect x="612" y="1037" width="226" height="22" fill="#f8fafc"/>
<text x="622" y="1052" font-size="11" font-weight="600" fill="#0f172a">level / where</text>
<text x="741.6" y="1052" font-size="10" fill="#64748b">уровень / модуль</text>
<text x="622" y="1074" font-size="11" font-weight="600" fill="#0f172a">msg</text>
<text x="673" y="1074" font-size="10" fill="#64748b">текст ошибки</text>
<rect x="612" y="1081" width="226" height="22" fill="#f8fafc"/>
<text x="622" y="1096" font-size="11" font-weight="600" fill="#0f172a">—</text>
<text x="659" y="1096" font-size="10" fill="#64748b">локально у пользователя</text>
</g>
<line x1="60" y1="503" x2="42" y2="503" stroke="#475569" stroke-width="2"/>
<line x1="42" y1="503" x2="42" y2="123" stroke="#475569" stroke-width="2"/>
<line x1="42" y1="123" x2="60" y2="123" stroke="#475569" stroke-width="2"/>
<line x1="60" y1="123" x2="52.0" y2="127.0" stroke="#475569" stroke-width="2"/>
<line x1="60" y1="123" x2="52.0" y2="119.0" stroke="#475569" stroke-width="2"/>
<circle cx="60" cy="503" r="4" fill="#475569" stroke="#fff" stroke-width="1.4"/>
<text x="38" y="313" transform="rotate(-90 38 313)" font-size="10" font-weight="600" fill="#1e293b" text-anchor="middle" style="paint-order:stroke;stroke:#ffffff;stroke-width:3.5;stroke-linejoin:round">area → areas.name</text>
<line x1="400" y1="767" x2="467" y2="767" stroke="#475569" stroke-width="2"/>
<line x1="467" y1="767" x2="467" y2="361" stroke="#475569" stroke-width="2"/>
<line x1="467" y1="361" x2="380" y2="361" stroke="#475569" stroke-width="2"/>
<line x1="380" y1="361" x2="388.0" y2="357.0" stroke="#475569" stroke-width="2"/>
<line x1="380" y1="361" x2="388.0" y2="365.0" stroke="#475569" stroke-width="2"/>
<circle cx="400" cy="767" r="4" fill="#475569" stroke="#fff" stroke-width="1.4"/>
<text x="461" y="564" transform="rotate(-90 461 564)" font-size="10" font-weight="600" fill="#1e293b" text-anchor="middle" style="paint-order:stroke;stroke:#ffffff;stroke-width:3.5;stroke-linejoin:round">telemetry_type → telemetry.name</text>
<line x1="60" y1="811" x2="46" y2="811" stroke="#475569" stroke-width="2"/>
<line x1="46" y1="811" x2="46" y2="243" stroke="#475569" stroke-width="2"/>
<line x1="46" y1="243" x2="60" y2="243" stroke="#475569" stroke-width="2"/>
<line x1="60" y1="243" x2="52.0" y2="247.0" stroke="#475569" stroke-width="2"/>
<line x1="60" y1="243" x2="52.0" y2="239.0" stroke="#475569" stroke-width="2"/>
<circle cx="60" cy="811" r="4" fill="#475569" stroke="#fff" stroke-width="1.4"/>
<text x="40" y="650" transform="rotate(-90 40 650)" font-size="10" font-weight="600" fill="#1e293b" text-anchor="middle" style="paint-order:stroke;stroke:#ffffff;stroke-width:3.5;stroke-linejoin:round">crew[].prof → professions.name</text>
<line x1="400" y1="701" x2="417" y2="701" stroke="#475569" stroke-width="2"/>
<line x1="417" y1="701" x2="417" y2="472" stroke="#475569" stroke-width="2"/>
<line x1="417" y1="472" x2="400" y2="472" stroke="#475569" stroke-width="2"/>
<line x1="400" y1="472" x2="408.0" y2="468.0" stroke="#475569" stroke-width="2"/>
<line x1="400" y1="472" x2="408.0" y2="476.0" stroke="#475569" stroke-width="2"/>
<circle cx="400" cy="701" r="4" fill="#475569" stroke="#fff" stroke-width="1.4"/>
<text x="411" y="650" transform="rotate(-90 411 650)" font-size="10" font-weight="600" fill="#1e293b" text-anchor="middle" style="paint-order:stroke;stroke:#ffffff;stroke-width:3.5;stroke-linejoin:round">depends_on / joint_with → id (self)</text>
<line x1="780" y1="249" x2="1070" y2="249" stroke="#475569" stroke-width="2"/>
<line x1="1070" y1="249" x2="1070" y2="162" stroke="#475569" stroke-width="2"/>
<line x1="1070" y1="162" x2="1350" y2="162" stroke="#475569" stroke-width="2"/>
<line x1="1350" y1="162" x2="1342.0" y2="166.0" stroke="#475569" stroke-width="2"/>
<line x1="1350" y1="162" x2="1342.0" y2="158.0" stroke="#475569" stroke-width="2"/>
<circle cx="780" cy="249" r="4" fill="#475569" stroke="#fff" stroke-width="1.4"/>
<text x="925" y="241" font-size="10" font-weight="600" fill="#1e293b" text-anchor="middle" style="paint-order:stroke;stroke:#ffffff;stroke-width:3.5;stroke-linejoin:round">respId → users.id</text>
<line x1="480" y1="293" x2="470" y2="293" stroke="#475569" stroke-width="2"/>
<line x1="470" y1="293" x2="470" y2="377" stroke="#475569" stroke-width="2"/>
<line x1="470" y1="377" x2="380" y2="377" stroke="#475569" stroke-width="2"/>
<line x1="380" y1="377" x2="388.0" y2="373.0" stroke="#475569" stroke-width="2"/>
<line x1="380" y1="377" x2="388.0" y2="381.0" stroke="#475569" stroke-width="2"/>
<circle cx="480" cy="293" r="4" fill="#475569" stroke="#fff" stroke-width="1.4"/>
<text x="463" y="335" transform="rotate(-90 463 335)" font-size="10" font-weight="600" fill="#1e293b" text-anchor="middle" style="paint-order:stroke;stroke:#ffffff;stroke-width:3.5;stroke-linejoin:round">attrs.telemetry → telemetry.name</text>
<line x1="480" y1="381" x2="437" y2="381" stroke="#475569" stroke-width="2"/>
<line x1="437" y1="381" x2="437" y2="478" stroke="#475569" stroke-width="2"/>
<line x1="437" y1="478" x2="400" y2="478" stroke="#475569" stroke-width="2"/>
<line x1="400" y1="478" x2="408.0" y2="474.0" stroke="#475569" stroke-width="2"/>
<line x1="400" y1="478" x2="408.0" y2="482.0" stroke="#475569" stroke-width="2"/>
<circle cx="480" cy="381" r="4" fill="#475569" stroke="#fff" stroke-width="1.4"/>
<text x="430" y="442" transform="rotate(-90 430 442)" font-size="10" font-weight="600" fill="#1e293b" text-anchor="middle" style="paint-order:stroke;stroke:#ffffff;stroke-width:3.5;stroke-linejoin:round">plan_works.wid → work_catalog.id</text>
<line x1="880" y1="667" x2="850" y2="667" stroke="#475569" stroke-width="2"/>
<line x1="850" y1="667" x2="850" y2="161" stroke="#475569" stroke-width="2"/>
<line x1="850" y1="161" x2="780" y2="161" stroke="#475569" stroke-width="2"/>
<line x1="780" y1="161" x2="788.0" y2="157.0" stroke="#475569" stroke-width="2"/>
<line x1="780" y1="161" x2="788.0" y2="165.0" stroke="#475569" stroke-width="2"/>
<circle cx="880" cy="667" r="4" fill="#475569" stroke="#fff" stroke-width="1.4"/>
<text x="843" y="414" transform="rotate(-90 843 414)" font-size="10" font-weight="600" fill="#1e293b" text-anchor="middle" style="paint-order:stroke;stroke:#ffffff;stroke-width:3.5;stroke-linejoin:round">o → objects.id</text>
<line x1="880" y1="689" x2="840" y2="689" stroke="#475569" stroke-width="2"/>
<line x1="840" y1="689" x2="840" y2="487" stroke="#475569" stroke-width="2"/>
<line x1="840" y1="487" x2="426" y2="487" stroke="#475569" stroke-width="2"/>
<line x1="426" y1="487" x2="426" y2="490" stroke="#475569" stroke-width="2"/>
<line x1="426" y1="490" x2="400" y2="490" stroke="#475569" stroke-width="2"/>
<line x1="400" y1="490" x2="408.0" y2="486.0" stroke="#475569" stroke-width="2"/>
<line x1="400" y1="490" x2="408.0" y2="494.0" stroke="#475569" stroke-width="2"/>
<circle cx="880" cy="689" r="4" fill="#475569" stroke="#fff" stroke-width="1.4"/>
<text x="630" y="480" font-size="10" font-weight="600" fill="#1e293b" text-anchor="middle" style="paint-order:stroke;stroke:#ffffff;stroke-width:3.5;stroke-linejoin:round">w → work_catalog.id</text>
<line x1="880" y1="733" x2="872" y2="733" stroke="#475569" stroke-width="2"/>
<line x1="872" y1="733" x2="872" y2="601" stroke="#475569" stroke-width="2"/>
<line x1="872" y1="601" x2="810" y2="601" stroke="#475569" stroke-width="2"/>
<line x1="810" y1="601" x2="818.0" y2="597.0" stroke="#475569" stroke-width="2"/>
<line x1="810" y1="601" x2="818.0" y2="605.0" stroke="#475569" stroke-width="2"/>
<circle cx="880" cy="733" r="4" fill="#475569" stroke="#fff" stroke-width="1.4"/>
<text x="865" y="667" transform="rotate(-90 865 667)" font-size="10" font-weight="600" fill="#1e293b" text-anchor="middle" style="paint-order:stroke;stroke:#ffffff;stroke-width:3.5;stroke-linejoin:round">graphId → graphs.id</text>
<line x1="810" y1="667" x2="820" y2="667" stroke="#475569" stroke-width="2"/>
<line x1="820" y1="667" x2="820" y2="545" stroke="#475569" stroke-width="2"/>
<line x1="820" y1="545" x2="1263" y2="545" stroke="#475569" stroke-width="2"/>
<line x1="1263" y1="545" x2="1263" y2="168" stroke="#475569" stroke-width="2"/>
<line x1="1263" y1="168" x2="1350" y2="168" stroke="#475569" stroke-width="2"/>
<line x1="1350" y1="168" x2="1342.0" y2="172.0" stroke="#475569" stroke-width="2"/>
<line x1="1350" y1="168" x2="1342.0" y2="164.0" stroke="#475569" stroke-width="2"/>
<circle cx="810" cy="667" r="4" fill="#475569" stroke="#fff" stroke-width="1.4"/>
<text x="1050" y="538" font-size="10" font-weight="600" fill="#1e293b" text-anchor="middle" style="paint-order:stroke;stroke:#ffffff;stroke-width:3.5;stroke-linejoin:round">respId → users.id</text>
<line x1="500" y1="689" x2="478" y2="689" stroke="#475569" stroke-width="2"/>
<line x1="478" y1="689" x2="478" y2="432" stroke="#475569" stroke-width="2"/>
<line x1="478" y1="432" x2="630" y2="432" stroke="#475569" stroke-width="2"/>
<line x1="630" y1="432" x2="630" y2="424" stroke="#475569" stroke-width="2"/>
<line x1="630" y1="424" x2="634.0" y2="432.0" stroke="#475569" stroke-width="2"/>
<line x1="630" y1="424" x2="626.0" y2="432.0" stroke="#475569" stroke-width="2"/>
<circle cx="500" cy="689" r="4" fill="#475569" stroke="#fff" stroke-width="1.4"/>
<text x="471" y="560" transform="rotate(-90 471 560)" font-size="10" font-weight="600" fill="#1e293b" text-anchor="middle" style="paint-order:stroke;stroke:#ffffff;stroke-width:3.5;stroke-linejoin:round">objs[].oid → objects.id</text>
<line x1="500" y1="711" x2="457" y2="711" stroke="#475569" stroke-width="2"/>
<line x1="457" y1="711" x2="457" y2="484" stroke="#475569" stroke-width="2"/>
<line x1="457" y1="484" x2="400" y2="484" stroke="#475569" stroke-width="2"/>
<line x1="400" y1="484" x2="408.0" y2="480.0" stroke="#475569" stroke-width="2"/>
<line x1="400" y1="484" x2="408.0" y2="488.0" stroke="#475569" stroke-width="2"/>
<circle cx="500" cy="711" r="4" fill="#475569" stroke="#fff" stroke-width="1.4"/>
<text x="443" y="593" transform="rotate(-90 443 593)" font-size="10" font-weight="600" fill="#1e293b" text-anchor="middle" style="paint-order:stroke;stroke:#ffffff;stroke-width:3.5;stroke-linejoin:round">objs[].works[].wid → work_catalog.id</text>
<line x1="810" y1="777" x2="826" y2="777" stroke="#475569" stroke-width="2"/>
<line x1="826" y1="777" x2="826" y2="601" stroke="#475569" stroke-width="2"/>
<line x1="826" y1="601" x2="880" y2="601" stroke="#475569" stroke-width="2"/>
<line x1="880" y1="601" x2="872.0" y2="605.0" stroke="#475569" stroke-width="2"/>
<line x1="880" y1="601" x2="872.0" y2="597.0" stroke="#475569" stroke-width="2"/>
<circle cx="810" cy="777" r="4" fill="#475569" stroke="#fff" stroke-width="1.4"/>
<text x="819" y="689" transform="rotate(-90 819 689)" font-size="10" font-weight="600" fill="#1e293b" text-anchor="middle" style="paint-order:stroke;stroke:#ffffff;stroke-width:3.5;stroke-linejoin:round">occs[].tid → tasks.id</text>
<line x1="1190" y1="623" x2="1230" y2="623" stroke="#475569" stroke-width="2"/>
<line x1="1230" y1="623" x2="1230" y2="152" stroke="#475569" stroke-width="2"/>
<line x1="1230" y1="152" x2="1350" y2="152" stroke="#475569" stroke-width="2"/>
<line x1="1350" y1="152" x2="1342.0" y2="156.0" stroke="#475569" stroke-width="2"/>
<line x1="1350" y1="152" x2="1342.0" y2="148.0" stroke="#475569" stroke-width="2"/>
<circle cx="1190" cy="623" r="4" fill="#475569" stroke="#fff" stroke-width="1.4"/>
<text x="1290" y="145" font-size="10" font-weight="600" fill="#1e293b" text-anchor="middle" style="paint-order:stroke;stroke:#ffffff;stroke-width:3.5;stroke-linejoin:round">m → users.id (мастер)</text>
<line x1="1500" y1="400" x2="1500" y2="320" stroke="#475569" stroke-width="2"/>
<line x1="1500" y1="320" x2="1460" y2="320" stroke="#475569" stroke-width="2"/>
<line x1="1460" y1="320" x2="1460" y2="270" stroke="#475569" stroke-width="2"/>
<line x1="1460" y1="270" x2="1464.0" y2="278.0" stroke="#475569" stroke-width="2"/>
<line x1="1460" y1="270" x2="1456.0" y2="278.0" stroke="#475569" stroke-width="2"/>
<circle cx="1500" cy="400" r="4" fill="#475569" stroke="#fff" stroke-width="1.4"/>
<text x="1480" y="313" font-size="10" font-weight="600" fill="#1e293b" text-anchor="middle" style="paint-order:stroke;stroke:#ffffff;stroke-width:3.5;stroke-linejoin:round">uid → users.id</text>
<line x1="1350" y1="507" x2="1310" y2="507" stroke="#475569" stroke-width="2"/>
<line x1="1310" y1="507" x2="1310" y2="255" stroke="#475569" stroke-width="2"/>
<line x1="1310" y1="255" x2="1350" y2="255" stroke="#475569" stroke-width="2"/>
<line x1="1350" y1="255" x2="1342.0" y2="259.0" stroke="#475569" stroke-width="2"/>
<line x1="1350" y1="255" x2="1342.0" y2="251.0" stroke="#475569" stroke-width="2"/>
<circle cx="1350" cy="507" r="4" fill="#475569" stroke="#fff" stroke-width="1.4"/>
<text x="1303" y="383" transform="rotate(-90 1303 383)" font-size="10" font-weight="600" fill="#1e293b" text-anchor="middle" style="paint-order:stroke;stroke:#ffffff;stroke-width:3.5;stroke-linejoin:round">brigade → users.id</text>
<line x1="1650" y1="249" x2="1694" y2="249" stroke="#475569" stroke-width="2"/>
<line x1="1694" y1="249" x2="1694" y2="1136" stroke="#475569" stroke-width="2"/>
<line x1="1694" y1="1136" x2="30" y2="1136" stroke="#475569" stroke-width="2"/>
<line x1="30" y1="1136" x2="30" y2="118" stroke="#475569" stroke-width="2"/>
<line x1="30" y1="118" x2="60" y2="123" stroke="#475569" stroke-width="2"/>
<line x1="60" y1="123" x2="51.5" y2="125.6" stroke="#475569" stroke-width="2"/>
<line x1="60" y1="123" x2="52.8" y2="117.7" stroke="#475569" stroke-width="2"/>
<circle cx="1650" cy="249" r="4" fill="#475569" stroke="#fff" stroke-width="1.4"/>
<text x="1240" y="1128" font-size="10" font-weight="600" fill="#1e293b" text-anchor="middle" style="paint-order:stroke;stroke:#ffffff;stroke-width:3.5;stroke-linejoin:round">area → areas.name</text>
<line x1="1350" y1="529" x2="1322" y2="529" stroke="#94a3b8" stroke-width="1.8" stroke-dasharray="7 5"/>
<line x1="1322" y1="529" x2="1322" y2="874" stroke="#94a3b8" stroke-width="1.8" stroke-dasharray="7 5"/>
<line x1="1322" y1="874" x2="655" y2="874" stroke="#94a3b8" stroke-width="1.8" stroke-dasharray="7 5"/>
<line x1="655" y1="874" x2="655" y2="798" stroke="#94a3b8" stroke-width="1.8" stroke-dasharray="7 5"/>
<line x1="655" y1="798" x2="659.0" y2="806.0" stroke="#94a3b8" stroke-width="1.8"/>
<line x1="655" y1="798" x2="651.0" y2="806.0" stroke="#94a3b8" stroke-width="1.8"/>
<circle cx="1350" cy="529" r="4" fill="#94a3b8" stroke="#fff" stroke-width="1.4"/>
<text x="975" y="867" font-size="10" font-weight="600" fill="#64748b" text-anchor="middle" style="paint-order:stroke;stroke:#ffffff;stroke-width:3.5;stroke-linejoin:round">графики смен / отсутствия → сдвиг дат серий (расчёт)</text>
<line x1="880" y1="711" x2="858" y2="711" stroke="#475569" stroke-width="2"/>
<line x1="858" y1="711" x2="858" y2="900" stroke="#475569" stroke-width="2"/>
<line x1="858" y1="900" x2="52" y2="900" stroke="#475569" stroke-width="2"/>
<line x1="52" y1="900" x2="52" y2="129" stroke="#475569" stroke-width="2"/>
<line x1="52" y1="129" x2="60" y2="123" stroke="#475569" stroke-width="2"/>
<line x1="60" y1="123" x2="56.0" y2="131.0" stroke="#475569" stroke-width="2"/>
<line x1="60" y1="123" x2="51.2" y2="124.6" stroke="#475569" stroke-width="2"/>
<circle cx="880" cy="711" r="4" fill="#475569" stroke="#fff" stroke-width="1.4"/>
<text x="640" y="892" font-size="10" font-weight="600" fill="#1e293b" text-anchor="middle" style="paint-order:stroke;stroke:#ffffff;stroke-width:3.5;stroke-linejoin:round">garea → areas.name (участок работ)</text>
<line x1="185" y1="1091" x2="185" y2="1150" stroke="#94a3b8" stroke-width="1.8" stroke-dasharray="7 5"/>
<line x1="185" y1="1150" x2="1685" y2="1150" stroke="#94a3b8" stroke-width="1.8" stroke-dasharray="7 5"/>
<line x1="1685" y1="1150" x2="1685" y2="507" stroke="#94a3b8" stroke-width="1.8" stroke-dasharray="7 5"/>
<line x1="1685" y1="507" x2="1650" y2="507" stroke="#94a3b8" stroke-width="1.8" stroke-dasharray="7 5"/>
<line x1="1650" y1="507" x2="1658.0" y2="503.0" stroke="#94a3b8" stroke-width="1.8"/>
<line x1="1650" y1="507" x2="1658.0" y2="511.0" stroke="#94a3b8" stroke-width="1.8"/>
<circle cx="185" cy="1091" r="4" fill="#94a3b8" stroke="#fff" stroke-width="1.4"/>
<text x="930" y="1160" font-size="10" font-weight="600" fill="#64748b" text-anchor="middle" style="paint-order:stroke;stroke:#ffffff;stroke-width:3.5;stroke-linejoin:round">праздники → подсветка дней в «Графиках смен»</text>
<rect x="40" y="1175" width="1660" height="68" rx="12" fill="#ffffff" stroke="#cbd5e1" stroke-width="1.4"/>
<text x="54" y="1197" font-size="12" font-weight="800" fill="#0f172a">ЛЕГЕНДА:</text>
<rect x="130" y="1185" width="26" height="15" rx="3" fill="#ffffff" stroke="#f59e0b" stroke-width="2"/><text x="164" y="1197" font-size="11" fill="#334155">— ключевая строка (PK) таблицы</text>
<rect x="350" y="1185" width="26" height="15" rx="3" fill="#ffffff" stroke="#0ea5e9" stroke-width="2"/><text x="384" y="1197" font-size="11" fill="#334155">— поле связи (FK → база)</text>
<line x1="560" y1="1192" x2="585" y2="1192" stroke="#475569" stroke-width="2"/>
<line x1="585" y1="1192" x2="585" y2="1201" stroke="#475569" stroke-width="2"/>
<line x1="585" y1="1201" x2="615" y2="1201" stroke="#475569" stroke-width="2"/>
<line x1="615" y1="1201" x2="606" y2="1197" stroke="#475569" stroke-width="2"/>
<line x1="615" y1="1201" x2="606" y2="1205" stroke="#475569" stroke-width="2"/>
<text x="622" y="1197" font-size="11" fill="#334155">— ссылочная связь (FK → PK), все изгибы 90°</text>
<line x1="908" y1="1192" x2="933" y2="1192" stroke="#94a3b8" stroke-width="1.8" stroke-dasharray="7 5"/>
<line x1="933" y1="1192" x2="933" y2="1201" stroke="#94a3b8" stroke-width="1.8" stroke-dasharray="7 5"/>
<line x1="933" y1="1201" x2="963" y2="1201" stroke="#94a3b8" stroke-width="1.8" stroke-dasharray="7 5"/>
<line x1="963" y1="1201" x2="954" y2="1197" stroke="#94a3b8" stroke-width="1.8"/>
<line x1="963" y1="1201" x2="954" y2="1205" stroke="#94a3b8" stroke-width="1.8"/>
<text x="970" y="1197" font-size="11" fill="#334155">— логическая связь: не колонка, а влияние при расчётах</text>
<text x="54" y="1221" font-size="11" fill="#475569">Цветные зоны — смысловые блоки: справочники · объекты · планирование работ · персонал · служебные. Каждая база скачивается отдельным файлом на странице «Бэкапы БД» (Администрирование, 22.09-139).</text>
<text x="54" y="1237" font-size="10.5" fill="#94a3b8">Привязка задач к серии: graphId + graphRi + graphSid → graphs.objs[].works[] · якорь серии — attrs.commissionDate / objects.plan_works · общий набор работ объекта действует во всех графиках (22.09-138).</text>
</svg>